<svg width="45" height="38" viewBox="0 0 45 38" fill="none" xmlns="http://www.w3.org/2000/svg">
<path fill-rule="evenodd" clip-rule="evenodd" d="M41.8125 10.4519C35.8885 7.44558 25.6895 8.90193 25.6895 16.7454C25.6895 22.5863 29.706 24.8853 34.6168 26.8149C41.5954 29.556 34.8133 34.7364 26.2943 29.3791C26.2943 29.3791 25.9893 29.2283 25.8394 29.3791C25.6895 29.53 25.6895 29.6808 25.6895 29.8368C25.6895 29.9877 25.6895 35.4646 25.6895 35.4646C28.667 36.9989 30.8898 37.7791 34.3274 37.7427C45.4155 37.6283 47.0128 26.945 41.1146 22.836C40.0446 22.087 37.1808 20.5943 36.2762 20.2458C31.5876 18.4462 31.9857 15.8872 33.4744 14.5973C35.1183 13.1669 39.6776 15.3306 41.5954 16.5373C42.7585 17.2603 42.9497 16.3605 42.9446 15.5699L42.9291 11.8302C42.9291 10.9408 42.6241 10.868 41.8125 10.4519ZM7.57109 19.7933V6.09327C7.57109 6.02565 7.80888 5.79159 7.87091 5.79159C13.6398 5.49512 16.9223 6.62899 17.217 12.8288C17.553 19.9441 11.6238 20.095 7.57109 20.095V19.7933ZM0.61322 0.767213V37.5971H7.57109V25.7279C16.1211 26.3416 23.8337 23.2573 23.8337 13.3126C23.8337 9.30242 22.5931 5.26627 19.6517 2.8269C15.5421 -0.585104 5.93759 0.174274 0.61322 0.767213Z" fill="#87BCF6"/>
</svg>
